<?xml version="1.0" encoding="utf-8"?>
<!-- Generator: Adobe Illustrator 21.0.2, SVG Export Plug-In . SVG Version: 6.00 Build 0)  -->
<svg xmlns="http://www.w3.org/2000/svg" xmlns:xlink="http://www.w3.org/1999/xlink" version="1.1" id="Layer_1" x="0px" y="0px" viewBox="0 0 40 40" style="enable-background:new 0 0 40 40;" xml:space="preserve" width="80px" height="80px">
<path style="fill:#C29653;" d="M25.8,2c-4.4,0-10.5,3.2-15.5,8.3C6.7,13.9,4,17.9,2.7,21.7c-1.2,3.5-1,6.4,0.6,7.9  C4.2,30.5,5.5,31,7.2,31c0.7,0,1.5-0.1,2.3-0.3c-1.2-3.3-0.5-6.3,6.9-14.5c4.9-5.4,11.5-8.6,14.4-6.8c0.6-2.7,0.2-4.8-1.1-6.1  C28.8,2.5,27.5,2,25.8,2z"/>
<path style="fill:#A5743A;" d="M25,8c1.7,0,4.2,0.3,5.8,1.2l0,0c0.1-0.3,0.1-0.6,0.1-0.9c0,0,0-0.1,0-0.1c0.1-0.8,0.1-1.6,0-2.3  c0-0.1,0-0.1,0-0.2c0-0.2-0.1-0.3-0.1-0.4c0-0.1-0.1-0.3-0.1-0.4c0-0.1-0.1-0.2-0.1-0.3c-0.1-0.1-0.1-0.3-0.2-0.4  c0-0.1-0.1-0.2-0.1-0.2c-0.1-0.2-0.3-0.4-0.5-0.6c-0.2-0.2-0.5-0.4-0.7-0.6c-0.2-0.1-0.5-0.3-0.8-0.4c0,0,0,0-0.1,0  C27.5,2.1,26.7,2,26,2l0,0c-1.3,0-2.8,0.3-4.4,0.8c-3.6,1.3-7.7,3.9-11.2,7.5c-2.6,2.6-4.7,5.5-6.2,8.3c-0.4,0.7-0.7,1.4-0.9,2.1  c0,0.1-0.1,0.2-0.1,0.3C8.9,15.2,18.1,8.1,25,8z"/>
<g>
	<g>
		<path style="fill:#FFEEA3;" d="M14.6,38.5c-4.5,0-7.5-2.3-8.9-3.8c-2.3-2.3-3.3-4.7-3.8-6.4C2.2,29,2.5,29.6,3,30    c1,1,2.4,1.5,4.2,1.5c4.5,0,10.8-3.3,15.9-8.4c3.6-3.6,6.4-7.8,7.6-11.6C32,7.7,31.7,4.7,30,3c-0.8-0.8-1.9-1.3-3.3-1.5l1,0    c1.5,0.3,4.2,1.1,7,3.8c2.4,2.4,9.2,11.3-4.4,24.8C24.8,35.7,19.5,38.5,14.6,38.5L14.6,38.5z M1.8,23.4c0.9-4.1,3.8-9.1,8.1-13.4    C15,4.8,21.3,1.5,25.8,1.5C21.3,1.5,15,4.8,9.9,9.9c-3.6,3.6-6.4,7.8-7.7,11.6C2.1,22.2,1.9,22.8,1.8,23.4z"/>
	</g>
	<g>
		<path style="fill:#F5C276;" d="M30.9,3.2c1.1,0.6,2.2,1.4,3.5,2.5c2.3,2.3,8.8,10.9-4.4,24.1C24.6,35.2,19.4,38,14.6,38    c-4.3,0-7.2-2.3-8.6-3.6c-1.1-1.1-1.9-2.2-2.5-3.3c1,0.6,2.2,0.9,3.6,0.9c4.7,0,11-3.4,16.2-8.6c3.7-3.7,6.5-7.9,7.8-11.8    C32.4,8.1,32.3,5.1,30.9,3.2 M26.5,1c-0.1,0-0.1,0-0.1,0S26.5,1,26.5,1c-0.1,0-0.3,0-0.4,0c-0.1,0-0.1,0-0.2,0h0c0,0-0.1,0-0.1,0    C21.3,1,15,4.1,9.6,9.6c-6.5,6.5-9.7,14.2-8.2,18.7c0.4,1.7,1.5,4.4,4,6.8C7,36.7,10.1,39,14.6,39c4.2,0,9.6-2,16.1-8.4    C43.9,17.3,38.2,8.2,35,5C31,1.2,27.3,1,26.5,1L26.5,1z M7.2,31c-1.7,0-3-0.5-3.8-1.3c-1.6-1.6-1.8-4.4-0.6-7.9    c1.3-3.8,3.9-7.8,7.5-11.4c5-5,11.1-8.3,15.5-8.3c1.7,0,3,0.5,3.8,1.3c1.6,1.6,1.8,4.4,0.6,7.9c-1.3,3.8-3.9,7.8-7.5,11.4    C17.7,27.8,11.6,31,7.2,31L7.2,31z"/>
	</g>
</g>
<path style="fill:#F5C276;" d="M6,26.5c-0.5,0-0.9-0.2-1.1-0.6c-0.2-0.4-0.3-0.8-0.1-1.3c0.2-0.4,0.5-0.8,0.9-0.9  c0.3-0.1,0.5,0.1,0.6,0.3c0.1,0.3-0.1,0.5-0.3,0.6c-0.1,0-0.2,0.1-0.2,0.3s0,0.3,0,0.3c0.1,0.1,0.2,0.1,0.3,0.1c0,0,0,0,0,0  c0.1,0,0.3-0.1,0.3-0.1c0.1-0.1,0.1-0.3,0.1-0.7c0-0.4-0.1-0.8-0.2-1.2c-0.1-0.4-0.2-0.8-0.2-1.3c-0.1-0.9,0.2-2.1,1.2-2.7  c0.2-0.1,0.4-0.1,0.6,0.1c-0.1-1.5,0.6-3.1,1.8-4c0.1-0.1,0.2-0.1,0.3-0.2c0.2-0.1,0.5,0,0.7,0.2c0,0,0,0.1,0.1,0.1  c0.1-0.4,0.1-0.9,0.3-1.3c0.3-0.7,0.8-1.4,1.5-1.7c0.3-0.2,0.7-0.3,1.1-0.2c0.1,0,0.1,0,0.2,0.1c0.1-0.3,0.2-0.7,0.3-1  c0.4-1.1,1.2-1.9,2-2.2c0.3-0.1,0.6-0.1,0.8,0.1c0.1-0.5,0.3-1.1,0.7-1.5c0.5-0.6,1.4-1,2.1-0.6c0.2,0.1,0.3,0.4,0.2,0.6  c-0.1,0.2-0.4,0.4-0.6,0.3c-0.1,0-0.2,0-0.4,0s-0.2,0.2-0.2,0.3c0,0.1,0,0.2,0,0.4c0.1,0.1,0.2,0.2,0.3,0.2c0.1,0,0.2,0,0.4-0.1  c0.1-0.1,0.2-0.2,0.2-0.3c0.1-0.3,0.3-0.4,0.6-0.4c0.3,0.1,0.4,0.3,0.4,0.6c-0.1,0.4-0.3,0.7-0.7,0.9c-0.3,0.2-0.8,0.3-1.1,0.2  c-0.3-0.1-0.6-0.3-0.8-0.6c0,0.2-0.1,0.3-0.1,0.5c-0.1,0.6-0.3,1.2-0.7,1.8c-0.1,0.1-0.2,0.3-0.5,0.4c-0.2,0.1-0.4,0.1-0.6,0  c-0.4-0.1-0.6-0.4-0.8-0.7c-0.1,0.2-0.2,0.4-0.2,0.5c-0.2,0.4-0.3,0.8-0.4,1.3c-0.1,0.4-0.2,0.8-0.3,1.2c-0.1,0.2-0.2,0.4-0.4,0.6  c-0.3,0.2-0.6,0.3-1,0.2c-0.4-0.1-0.7-0.3-0.9-0.6c0,0,0,0,0-0.1c0,0,0,0.1-0.1,0.1c-0.2,0.5-0.2,1-0.3,1.5c0,0.4-0.1,0.8-0.2,1.1  c-0.1,0.4-0.2,0.8-0.6,1.1c-0.3,0.3-0.8,0.3-1.2,0.1c-0.2-0.1-0.5-0.3-0.6-0.5c-0.2,0.6-0.3,1.2-0.2,1.8c0,0.1,0,0.2,0.1,0.3  c0.1,0.3,0.1,0.5,0.1,0.8c0,0.6-0.2,1.2-0.7,1.4c-0.3,0.2-0.8,0.3-1.2,0.1c0,0-0.1,0-0.1,0c0,0.3,0.1,0.5,0.2,0.8  c0.1,0.4,0.2,0.9,0.2,1.3c0,0.6,0,1-0.3,1.3C6.9,26.3,6.5,26.5,6,26.5z M7.8,20.3c0,0.1-0.1,0.1-0.2,0.2c-0.3,0.2-0.5,0.6-0.4,0.9  c0,0.1,0.2,0.3,0.3,0.3c0,0,0.2,0.1,0.3,0c0.1-0.1,0.2-0.3,0.2-0.6c0-0.2-0.1-0.4-0.1-0.6C7.8,20.4,7.8,20.3,7.8,20.3z M10.1,16.4  c-0.3,0.2-0.6,0.5-0.5,0.9c0,0.1,0.1,0.3,0.3,0.4c0.1,0,0.2,0.1,0.2,0c0.1-0.1,0.2-0.3,0.2-0.5c0.1-0.3,0.1-0.7,0.2-1  c0,0,0-0.1,0-0.1c0,0.1-0.1,0.2-0.2,0.2C10.2,16.3,10.2,16.4,10.1,16.4z M12.8,13.6c-0.1,0.1-0.2,0.2-0.2,0.2c0,0.1,0,0.2,0.1,0.3  c0.1,0.1,0.2,0.2,0.3,0.2c0.1,0,0.1,0,0.1,0c0,0,0-0.1,0.1-0.2c0.1-0.2,0.1-0.4,0.2-0.7c0,0-0.1,0-0.1,0  C13.1,13.5,13,13.5,12.8,13.6z M16.4,10.5c-0.2,0-0.4,0.1-0.4,0.3c0,0.2,0.1,0.4,0.3,0.5c0.2-0.2,0.3-0.5,0.3-0.8  C16.5,10.5,16.5,10.5,16.4,10.5C16.4,10.5,16.4,10.5,16.4,10.5z"/>
<path style="fill:#F5C276;" d="M8.3,25.8c-0.2,0-0.3-0.1-0.4-0.2C7.7,25.3,7.8,25,8,24.9c0.3-0.2,0.4-0.5,0.5-0.9  c0-0.4,0-0.9-0.2-1.3c-0.1-0.3-0.2-0.6-0.2-1c-0.2-1-0.5-2-0.6-3.1c-0.1-1.2,0-2.8,1-4.2c0.2-0.2,0.5-0.3,0.7-0.1  c0.2,0.2,0.3,0.5,0.1,0.7c-0.8,1.1-0.9,2.5-0.8,3.5c0.1,1,0.3,1.9,0.6,2.9c0.1,0.3,0.2,0.6,0.2,1c0.1,0.5,0.2,1.1,0.2,1.7  c-0.1,0.7-0.4,1.3-1,1.6C8.4,25.8,8.4,25.8,8.3,25.8z"/>
<path style="fill:#FFF9DE;" d="M32,8c0,0.3-0.1,0.6-0.2,1c-0.1,0.7-0.3,1.4-0.5,2.1c0,0,0,0,0,0c0,0.1-0.1,0.3-0.1,0.4  c0,0.1-0.1,0.3-0.2,0.4c0,0.1-0.1,0.2-0.1,0.3c-0.2,0.5-0.4,1-0.7,1.6c0,0.1-0.1,0.2-0.1,0.3c-0.1,0.3-0.3,0.6-0.4,0.9  c-0.1,0.1-0.1,0.2-0.2,0.3c-0.3,0.6-0.7,1.3-1.1,1.9c1.5,1.2,6.7,5.8,2.1,12c1.6-1.7,2.9-3.2,3.9-4.7C40.8,14.1,33.3,7.6,32,8z"/>
<path style="fill:#F5CE85;" d="M9.1,37.4c-0.3,0-0.5-0.2-0.5-0.5c0-0.3,0.2-0.5,0.5-0.5c2.6-0.1,5.1-0.8,7.4-2  c0.2-0.1,0.2-0.2,0.2-0.6l0-0.3c0.2-1.5,0.9-2.4,1.9-2.7c0.3-0.1,0.5,0.1,0.6,0.4c0.1,0.3-0.1,0.5-0.3,0.6c-0.4,0.1-0.7,0.6-0.6,0.9  c0,0.2,0.2,0.3,0.4,0.4c0.1,0,0.3,0.1,0.4,0c0.3-0.2,0.3-0.7,0.3-1.2c0.1-1.6,0.8-3.2,2.2-3.4c0.3,0,0.5,0.1,0.6,0.4  c0.1,0.3-0.1,0.5-0.4,0.6c-0.2,0-0.3,0.2-0.4,0.4c-0.1,0.2-0.1,0.4,0,0.6c0.1,0.2,0.3,0.3,0.5,0.3c0.2,0,0.3,0,0.4-0.1  c0.1-1,0.4-2.1,0.8-3c0.3-0.5,0.5-0.8,0.9-1c0.2-0.2,0.5-0.3,0.8-0.3c0,0,0,0,0,0c0.3,0,0.5,0.2,0.5,0.5c0,0.3-0.2,0.5-0.4,0.5  c-0.1,0-0.2,0-0.2,0.1c0,0-0.1,0.1-0.1,0.1c-0.1,0.2-0.1,0.4,0,0.5c0.1,0.2,0.3,0.2,0.4,0.3c0.2,0.1,0.5,0,0.7-0.1  c0.4-0.2,0.6-0.7,0.6-1.3c0-0.2,0-0.3,0-0.5c0-0.2,0-0.4,0-0.6c0-1.1,0.8-2.2,1.8-2.6c0.2-0.1,0.5,0,0.6,0.2c0.1,0.2,0,0.5-0.2,0.7  c-0.4,0.3-0.8,0.9-0.6,1.2c0.1,0.1,0.2,0.2,0.3,0.2c0.2,0,0.5-0.1,0.7-0.2c0.3-0.3,0.5-0.8,0.5-1.5c0-0.2,0-0.4,0-0.6  c0-0.5,0-1,0.1-1.6c0.1-0.3,0.2-0.7,0.5-1c0.3-0.4,0.7-0.7,1.2-0.8c0.3,0,0.5,0.1,0.6,0.4c0,0.3-0.1,0.5-0.4,0.6  c-0.2,0-0.4,0.2-0.6,0.4c0,0.1-0.1,0.1-0.1,0.2c0,0.1,0.1,0.3,0.2,0.3c0,0,0.1,0.1,0.3,0.1c0.2,0,0.3-0.2,0.5-0.6  c0.3-0.6,0.3-1.4,0-2L31.3,19c-0.1-0.2-0.1-0.4-0.2-0.6c-0.1-0.6,0.2-1.1,0.5-1.5c0.2-0.3,0.5-0.6,0.8-0.8c0.2-0.1,0.5,0,0.6,0.2  c0.1,0.2,0.1,0.5-0.1,0.6c-0.2,0.2-0.3,0.3-0.5,0.5c0,0,0,0.1,0,0.1c0,0.2,0,0.3,0.1,0.5c0.2,0.2,0.5,0.2,0.7,0  c0.1-0.1,0.1-0.2,0-0.3c-0.1-0.2,0-0.5,0.2-0.7c0.2-0.1,0.5,0,0.7,0.2c0.2,0.4,0.2,0.9-0.1,1.3c-0.4,0.6-1.2,0.9-1.8,0.6  c0.2,0.8,0.2,1.7-0.1,2.5c-0.3,0.6-0.7,1.1-1.2,1.2c-0.3,0.1-0.6,0-0.9-0.2c0,0.2,0,0.4,0,0.6c0,0.2,0,0.4,0,0.6  c0,1-0.3,1.8-0.8,2.3c-0.4,0.4-1,0.6-1.5,0.5c-0.3,0-0.6-0.2-0.9-0.4c0,0.1,0,0.2,0,0.3c0,0.2,0,0.4,0,0.6c0,0.9-0.4,1.7-1,2.1  c-0.4,0.3-0.9,0.4-1.4,0.2c-0.4-0.1-0.7-0.3-0.9-0.6c-0.3,0.7-0.4,1.4-0.5,2.2c0,0.1,0,0.2-0.1,0.3c-0.3,0.4-0.9,0.6-1.4,0.5  c-0.5-0.1-1-0.3-1.2-0.8c-0.1,0.3-0.1,0.6-0.1,0.9c0,0.7-0.1,1.6-0.7,2c-0.4,0.3-0.9,0.3-1.3,0.2c-0.2-0.1-0.4-0.2-0.5-0.3l0,0.1  c-0.1,0.5-0.1,1.1-0.8,1.4C14.6,36.5,11.9,37.3,9.1,37.4C9.2,37.4,9.2,37.4,9.1,37.4z"/>
<path style="fill:#F5C276;" d="M1.6,29.1c0.5,1.7,1.6,3.9,3.7,6c3.2,3.2,12.1,8.7,25.3-4.5C20.3,40.9,7.5,35.2,1.6,29.1z"/>
<path style="fill:#F5CE85;" d="M25.7,31.7c-0.2,0-0.3-0.1-0.4-0.2c-0.2-0.2-0.1-0.5,0.1-0.7c1.1-0.8,1-2.4,1-3c0-0.5-0.1-1-0.2-1.5  c-0.1-0.8-0.3-1.6-0.3-2.4c0-1.4,0.6-2.8,1.5-3.9c0.2-0.2,0.5-0.2,0.7-0.1c0.2,0.2,0.2,0.5,0.1,0.7c-0.8,0.9-1.2,2.1-1.3,3.3  c0,0.7,0.1,1.4,0.2,2.2c0.1,0.5,0.2,1,0.2,1.6c0.1,1.7-0.4,3.2-1.4,3.9C25.9,31.7,25.8,31.7,25.7,31.7z"/>
</svg>
