<svg id="Layer_5" enable-background="new 0 0 64 64" height="512" viewBox="0 0 64 64" width="512" xmlns="http://www.w3.org/2000/svg"><path d="m43 31.657c0-3.671-2.986-6.657-6.657-6.657-1.61 0-3.134.568-4.343 1.611-1.208-1.042-2.732-1.611-4.343-1.611-3.671 0-6.657 2.986-6.657 6.657 0 1.779.692 3.451 1.95 4.707l9.05 9.05 9.05-9.05c1.258-1.257 1.95-2.928 1.95-4.707zm-3.364 3.293-7.636 7.636-7.636-7.637c-.88-.879-1.364-2.048-1.364-3.292 0-2.568 2.089-4.657 4.657-4.657 1.243 0 2.413.484 3.292 1.363l1.051 1.052 1.05-1.051c.88-.88 2.05-1.364 3.293-1.364 2.568 0 4.657 2.089 4.657 4.657 0 1.244-.484 2.413-1.364 3.293z" fill ="#edcdc7"/><path d="m58 7h-7v-2c0-2.206-1.794-4-4-4s-4 1.794-4 4v2h-6v-2c0-2.206-1.794-4-4-4s-4 1.794-4 4v2h-6v-2c0-2.206-1.794-4-4-4s-4 1.794-4 4v2h-1c-2.757 0-5 2.243-5 5v41h-8v5c0 2.757 2.243 5 5 5h52c2.757 0 5-2.243 5-5v-46c0-2.757-2.243-5-5-5zm3 5v3h-6v-3c0-1.654 1.346-3 3-3s3 1.346 3 3zm-16-7c0-1.103.897-2 2-2s2 .897 2 2v2h-4zm-14 0c0-1.103.897-2 2-2s2 .897 2 2v2h-4zm-14 0c0-1.103.897-2 2-2s2 .897 2 2v2h-4zm-3 4h1c0 2.206 1.794 4 4 4v-2c-1.103 0-2-.897-2-2h12c0 2.206 1.794 4 4 4v-2c-1.103 0-2-.897-2-2h12c0 2.206 1.794 4 4 4v-2c-1.103 0-2-.897-2-2h9.026c-.635.838-1.026 1.87-1.026 3v3h-42v-3c0-1.654 1.346-3 3-3zm-8 52c-1.654 0-3-1.346-3-3v-3h42v3c0 1.125.373 2.164 1.002 3zm44 0c-1.654 0-3-1.346-3-3v-5h-36v-36h42v41c0 1.654-1.346 3-3 3zm8 0h-4.002c.437-.581.739-1.263.89-2h4.112v-40h-2v38h-2v-40h6v41c0 1.654-1.346 3-3 3z" fill ="#edcdc7"/><path d="m13 51h38v-32h-38zm2-30h34v28h-34z" fill ="#edcdc7"/><path d="m45 45h-4v2h6v-9h-2z" fill ="#edcdc7"/><path d="m45 34h2v2h-2z" fill ="#edcdc7"/><path d="m17 23h2v2h-2z" fill ="#edcdc7"/><path d="m17 27h2v2h-2z" fill ="#edcdc7"/><path d="m17 31h2v2h-2z" fill ="#edcdc7"/></svg>